<svg xmlns="http://www.w3.org/2000/svg" version="1.1" viewBox="0 0 95 95">
    <path fill="#666666" d="m54.363 31.312c0-0.73828 0.59766-1.3359 1.3359-1.3359h0.38281c0.73828 0 1.3359 0.59766 1.3359 1.3359s-0.59766 1.3359-1.3359 1.3359h-0.38281c-0.73828 0-1.3359-0.59766-1.3359-1.3359zm-20.934-3.9805h13.379c0.73828 0 1.3359-0.59766 1.3359-1.3359 0-0.73828-0.59766-1.3359-1.3359-1.3359l-13.379 0.003906c-0.73828 0-1.3359 0.59766-1.3359 1.3359 0.003906 0.73438 0.60156 1.332 1.3359 1.332zm0 5.3164h18.613c0.73828 0 1.3359-0.59766 1.3359-1.3359s-0.59766-1.3359-1.3359-1.3359h-18.613c-0.73828 0-1.3359 0.59766-1.3359 1.3359 0.003906 0.73828 0.60156 1.3359 1.3359 1.3359zm-8.6602 24.883c0 0.73828 0.59766 1.3359 1.3359 1.3359h26.988c0.73828 0 1.3359-0.59766 1.3359-1.3359s-0.59766-1.3359-1.3359-1.3359l-26.992 0.003907c-0.73437 0-1.332 0.59766-1.332 1.332zm19.535 2.6484h-18.203c-0.73828 0-1.3359 0.59766-1.3359 1.3359s0.59766 1.3359 1.3359 1.3359h18.199c0.73828 0 1.3359-0.59766 1.3359-1.3359s-0.59766-1.3359-1.332-1.3359zm-18.297-25.82v0.46875c0 0.73828 0.59766 1.3359 1.3359 1.3359s1.3359-0.59766 1.3359-1.3359v-0.46875c1.2461-0.49609 2.125-1.6602 2.125-3.0195v-1.0117c0-2.2773-1.707-3.1836-2.8359-3.7852-1.1328-0.60156-1.4219-0.83594-1.4219-1.4297v-1.0117c0-0.32812 0.36328-0.60547 0.79688-0.60547 0.42188 0 0.79297 0.28516 0.79297 0.60547v1.0117c0 0.73828 0.59766 1.3359 1.3359 1.3359 0.73828 0 1.3359-0.59766 1.3359-1.3359v-1.0117c0-1.3594-0.87891-2.5234-2.125-3.0195v-0.46875c0-0.73828-0.59766-1.3359-1.3359-1.3359-0.73828 0-1.3359 0.59766-1.3359 1.3359v0.46875c-1.25 0.49609-2.1328 1.6602-2.1328 3.0195v1.0117c0 2.2773 1.707 3.1836 2.8359 3.7852 1.1328 0.60156 1.4219 0.83594 1.4219 1.4297v1.0117c0 0.32031-0.37109 0.60547-0.79297 0.60547-0.43359 0-0.79688-0.27734-0.79688-0.60547v-1.0117c0-0.73828-0.59766-1.3359-1.3359-1.3359-0.73828 0-1.3359 0.59766-1.3359 1.3359v1.0117c0 1.3594 0.88281 2.5273 2.1328 3.0195zm67.684 43.84c0 6.8008-5.4766 12.332-12.207 12.332-3.4297 0-6.5273-1.4375-8.75-3.7422l-16.793-0.003906c-1.9844 0-3.5977-1.625-3.5977-3.625v-0.52734h-38.52c-2.3945 0-4.3398-1.9609-4.3398-4.3711v-20.848c-4.6523-1.9961-7.9219-6.6523-7.9219-12.066 0-5.4141 3.2695-10.074 7.9219-12.066v-11.527c0-2.4141 1.9492-4.375 4.3398-4.375h3.0977v-4.0391c0-2.1328 1.7227-3.8672 3.8398-3.8672h35.879c0.35547 0 0.69922 0.14453 0.94922 0.39453l12.816 12.965c0.24609 0.25 0.38672 0.58594 0.38672 0.9375v21.094l8.3867-4.4922c0.84375-0.45312 1.8164-0.54297 2.7383-0.26172 0.92578 0.28516 1.6836 0.91406 2.1328 1.7695l1.2305 2.3516c0.92188 1.7617 0.25391 3.957-1.4922 4.8906l-12.996 6.9609v6.3438h7.9922c1.9375 0 3.5195 1.5508 3.5898 3.4844 6.3164 0.45703 11.316 5.793 11.316 12.289zm-14.906-13.109h-22.844c-0.50391 0-0.92969 0.43359-0.92969 0.94922v2.6641c0 0.51562 0.42578 0.94922 0.92969 0.94922h16.75c1.8359-1.9258 4.2773-3.25 7.0195-3.6562-0.023438-0.49219-0.4375-0.90625-0.92578-0.90625zm-8.0352 7.2305h-14.809c-0.51172 0-0.92969 0.42578-0.92969 0.94922v2.6562c0 0.51953 0.42578 0.95703 0.92969 0.95703h13.402c0.17188-1.6328 0.66016-3.1758 1.4062-4.5625zm-2.625-14.816-4.5234 2.4258c-0.19141 0.10156-0.38672 0.18359-0.58594 0.25h1.6016c0.73828 0 1.3359 0.59766 1.3359 1.3359 0 0.35156-0.13672 0.66797-0.35938 0.90625h2.5312zm-7.875-3.9688c-0.45312 0.24219-0.62891 0.83594-0.38672 1.3008l1.2266 2.3516c0.11719 0.21875 0.3125 0.38281 0.55469 0.45703 0.23438 0.074219 0.48047 0.050781 0.69531-0.066406l20.188-10.812c0.45312-0.24219 0.62891-0.83594 0.38672-1.3008l-1.2305-2.3516c-0.11719-0.21875-0.3125-0.38281-0.55469-0.45703-0.089844-0.027344-0.17969-0.042969-0.27344-0.042969-0.14844 0-0.28906 0.035157-0.42188 0.10547zm0.35938-16.012h-1.9414v13.852c0.10156-0.070312 0.21094-0.13672 0.32031-0.19531l1.6172-0.86719zm-2.6328-16.289c0 0.66016 0.52344 1.1992 1.1719 1.1992h7.1172l-8.2891-8.3828zm-38.387-7.8984v19.941c2.6602 1.1406 4.8633 3.1523 6.2656 5.6758 0.082031-0.015625 0.16016-0.023437 0.24609-0.023437h7.6602c0.73828 0 1.3359 0.59766 1.3359 1.3359s-0.59766 1.3359-1.3359 1.3359h-6.793c0.35156 1.1875 0.54297 2.4453 0.54297 3.75 0 0.50391-0.03125 0.99609-0.085938 1.4844h6.3359c0.73828 0 1.3359 0.59766 1.3359 1.3359s-0.59766 1.3359-1.3359 1.3359h-6.9219c-0.14453 0.44141-0.3125 0.86719-0.50391 1.2852h7.4258c0.73828 0 1.3359 0.59766 1.3359 1.3359 0 0.73828-0.59766 1.3359-1.3359 1.3359h-7.6602c-0.41406 0-0.78125-0.1875-1.0234-0.48047-1.3828 1.9453-3.2773 3.4961-5.4883 4.4414v13.441c0 0.66016 0.52344 1.1992 1.1719 1.1992h31.793c0.14062-0.39062 0.33984-0.75391 0.59766-1.0703-0.50781-0.625-0.8125-1.418-0.8125-2.2852l0.003906-1.8867h-26.242c-0.73828 0-1.3359-0.59766-1.3359-1.3359s0.59766-1.3359 1.3359-1.3359h26.773c0.33594-0.55078 0.80859-1.0039 1.375-1.3086h-5.6289c-0.73828 0-1.3359-0.59766-1.3359-1.3359 0-0.73828 0.59766-1.3359 1.3359-1.3359h12.207c-0.91016-0.28906-1.6523-0.91016-2.0977-1.7578l-1.2305-2.3516c-0.19141-0.36328-0.30859-0.74609-0.36719-1.1328h-18.977c-0.73828 0-1.3359-0.59766-1.3359-1.3359s0.59766-1.3359 1.3359-1.3359h1.2305l-0.007813-10.594c0-0.73828 0.59766-1.3359 1.3359-1.3359h4.6094c0.73828 0 1.3359 0.59766 1.3359 1.3359l-0.003906 10.605h1.0312v-7.5898c0-0.73828 0.59766-1.3359 1.3359-1.3359h4.6094c0.73828 0 1.3359 0.59766 1.3359 1.3359v7.5898h1.0352l-0.003906-16.078c0-0.73828 0.59766-1.3359 1.3359-1.3359h4.6094c0.73828 0 1.3359 0.59766 1.3359 1.3359l-0.003906 12.695 4.8477-2.5977v-21.188h-8.9805c-2.1172 0-3.8398-1.7344-3.8398-3.8672v-9.0977h-34.543c-0.64453 0-1.1719 0.53906-1.1719 1.1992zm32.711 32.68h-1.9414v6.2539h1.9414zm-8.3125-3.0195h-1.9414v9.2734h1.9414zm-31.836-10.527c0.77344-0.14453 1.5703-0.22656 2.3867-0.22656 0.81641 0 1.6094 0.082031 2.3828 0.22656v-12.422h-3.0977c-0.90625 0-1.6719 0.78125-1.6719 1.707zm2.3867 23.312c5.6797 0 10.305-4.6797 10.305-10.434s-4.6211-10.434-10.305-10.434c-5.6836 0-10.309 4.6797-10.309 10.434s4.625 10.434 10.309 10.434zm-0.71484 24.184h38.562c0.097656-0.65625 0.36719-1.2539 0.76953-1.7461-0.50781-0.625-0.8125-1.4219-0.8125-2.2891v-1.2031h-31.582c-2.1172 0-3.8398-1.7344-3.8398-3.8672v-12.633c-0.77344 0.14453-1.5703 0.22656-2.3828 0.22656-0.81641 0-1.6133-0.082031-2.3867-0.22656v20.039c0 0.9375 0.75 1.6992 1.6719 1.6992zm56.949 4.1523c-0.75391-1.3828-1.25-2.9258-1.4258-4.5664l-13.406 0.003907c-0.51172 0-0.92969 0.42578-0.92969 0.94922v2.6562c0 0.51953 0.42578 0.95703 0.92969 0.95703zm20.246-5.918c0-5.3281-4.2773-9.6641-9.5391-9.6641s-9.5391 4.3359-9.5391 9.6641 4.2773 9.6641 9.5391 9.6641 9.5391-4.3359 9.5391-9.6641zm-8.2031-6.3594v-0.40234c0-0.73828-0.59766-1.3359-1.3359-1.3359s-1.3359 0.59766-1.3359 1.3359v0.40234c-1.1914 0.48828-2.0273 1.6133-2.0273 2.918v0.96094c0 2.207 1.6484 3.082 2.7383 3.6602 1.1055 0.58984 1.3164 0.79297 1.3164 1.2969v0.96094c0 0.24219-0.28516 0.51172-0.69141 0.51172-0.37109 0-0.69531-0.23828-0.69531-0.51172v-0.96094c0-0.73828-0.59766-1.3359-1.3359-1.3359s-1.3359 0.59766-1.3359 1.3359v0.96094c0 1.3047 0.83594 2.4297 2.0273 2.918v0.40234c0 0.73828 0.59766 1.3359 1.3359 1.3359 0.73828 0 1.3359-0.59766 1.3359-1.3359v-0.40234c1.1914-0.48828 2.0234-1.6133 2.0234-2.918v-0.96094c0-2.2031-1.6445-3.0781-2.7344-3.6562-1.1094-0.58984-1.3203-0.79688-1.3203-1.3047v-0.96094c0-0.24219 0.28516-0.51172 0.69531-0.51172 0.40625 0 0.69141 0.26953 0.69141 0.51172v0.96094c0 0.73828 0.59766 1.3359 1.3359 1.3359 0.73828 0 1.3359-0.59766 1.3359-1.3359v-0.96094c0-1.3008-0.83594-2.4219-2.0234-2.9141zm7.2656-4.5156c0.26172 0.27734 0.61719 0.41797 0.96875 0.41797 0.32812 0 0.66016-0.12109 0.91797-0.36328l2.7734-2.6211c0.53516-0.50781 0.55859-1.3516 0.054687-1.8867-0.50781-0.53516-1.3516-0.55859-1.8867-0.054688l-2.7734 2.6211c-0.53516 0.50781-0.5625 1.3516-0.054688 1.8867zm8.3047 0.29688c-0.19922-0.71094-0.93359-1.125-1.6445-0.92578l-3.6523 1.0195c-0.71094 0.19922-1.125 0.93359-0.92578 1.6445 0.16406 0.58984 0.69922 0.97656 1.2852 0.97656 0.11719 0 0.23828-0.015626 0.35938-0.050782l3.6523-1.0195c0.71094-0.19922 1.125-0.93359 0.92578-1.6445zm-10.172-2.5469c0.14453 0.050781 0.29297 0.074219 0.4375 0.074219 0.55078 0 1.0703-0.34766 1.2617-0.89844l1.2539-3.6172c0.24219-0.69531-0.12891-1.457-0.82422-1.6992-0.69531-0.24219-1.457 0.12891-1.6992 0.82422l-1.2539 3.6172c-0.23828 0.69922 0.12891 1.457 0.82422 1.6992zm-69.82-23.633c-0.52344-0.51953-1.3672-0.51172-1.8867 0.011719l-5.8359 5.9023c-0.51953 0.52344-0.51172 1.3672 0.011719 1.8867 0.26172 0.25781 0.59766 0.38672 0.9375 0.38672 0.34375 0 0.6875-0.13281 0.94922-0.39453l5.8359-5.9023c0.51562-0.52734 0.51172-1.3711-0.011719-1.8906zm-6.2461 1.8477c1.1289 0 2.0508-0.93359 2.0508-2.0742s-0.92578-2.0742-2.0508-2.0742c-1.1328 0-2.0508 0.93359-2.0508 2.0742s0.91797 2.0742 2.0508 2.0742zm4.7773 4.1133c-1.1289 0-2.0508 0.92969-2.0508 2.0703 0 1.1445 0.92578 2.0742 2.0508 2.0742 1.1328 0 2.0508-0.92969 2.0508-2.0742 0-1.1406-0.91797-2.0703-2.0508-2.0703z" fill-rule="evenodd"/>
</svg>