<svg xmlns="http://www.w3.org/2000/svg" version="1.1" viewBox="0 0 100 100">
    <path fill="#666666" d="M44.4062538,48.4869423c0.7938843,4.5324097,3.8250122,8.1553955,9.0214233,10.7680054  c1.2124023,0.6351318,2.5548096,0.9526367,3.9260864,0.9382935h24.1485558  c1.3712769,0.0143433,2.7425537-0.317627,3.9694214-0.9527588c5.1098022-2.6125488,8.0977173-6.2211304,8.8771362-10.7390747  c1.284668-7.4769897-3.493103-17.1046162-14.5786133-29.3593159c3.0022583,0.3753052,5.7303467,1.977478,7.5202026,4.4024658  c0.5195923,0.6928101,1.4867554,0.8371582,2.1795654,0.3319092c0.6928711-0.505127,0.8372192-1.4866333,0.3319702-2.1651001  c-2.0640869-2.800293-5.0808105-4.734436-8.4729004-5.4417114c1.977478-1.7754517,3.2477417-4.2293091,3.5219727-6.8851929  c0.0578003-0.6784058-0.3175049-1.3135376-0.9526367-1.5733638c-0.6206665-0.2597656-1.3423462-0.0721436-1.789856,0.4474483  c0-1.2412715-0.1876221-2.4826045-0.5484619-3.6662593c-0.3031616-0.9526367-1.0393677-1.6887817-1.9919434-1.9630127  c-0.9527588-0.2886963-1.9775391-0.0866089-2.7425537,0.5340576l-6.2211914,5.0230708l-2.756897-2.1650996  c-1.0825806-0.8516235-2.6126099-0.8516235-3.6951904,0l-2.7714195,2.179565l-1.3712158-1.0825801  c-0.5485229-0.4185791-1.1980591-0.6351318-1.8476563-0.6351318c-0.5195923,0-1.0391846,0.1300049-1.5010986,0.4042358  c-1.0681152,0.6206665-1.6455688,1.8186641-1.4578857,3.0311885c0.4474487,3.218811,2.2661743,6.0911865,4.9942017,7.8811035  C48.231266,30.6895161,43.0637856,40.7501869,44.4062538,48.4869423z M60.081852,13.5993061  c-0.9093628-1.1115112-1.515564-2.4538574-1.7754517-3.8684082l1.2269287,0.9526367  c1.0825806,0.8660889,2.6126099,0.8660889,3.6951904,0l2.7713585-2.1651611l2.757019,2.1651611  c0.5485229,0.4331055,1.197998,0.6351318,1.8475342,0.6351318c0.6640015,0,1.3279419-0.2164917,1.8764648-0.6639404  l6.1489868-4.9798579c0.8804932,2.9445796,0.2020874,6.1490474-1.8187256,8.4729004  c-0.8804932,0.9959717-1.977478,1.7753906-3.2043457,2.2662354c0.4041138-0.9093628,0.6206665-1.8909302,0.6350708-2.8869019  c0-0.4041748-0.1587524-0.8082886-0.4474487-1.0969849s-0.6784668-0.4619141-1.0825806-0.4619141h-0.0288696  c-0.8372192,0-1.5300293,0.6784668-1.5444946,1.5300293c-0.0144653,1.5588989-0.9238281,2.9589844-2.3383179,3.6085815  c-1.4145508-0.6351318-2.3239136-2.0496826-2.3383789-3.6085815c-0.0144653-0.8515625-0.7072754-1.5300293-1.5444946-1.5300293  h-0.0288696c-0.4041138,0-0.7938843,0.1587524-1.0825768,0.4619141c-0.2886353,0.2886963-0.4474487,0.6928101-0.4474487,1.0969849  c0,0.9526367,0.2020874,1.9053345,0.5918579,2.7858276c-0.2165527-0.0866089-0.4330444-0.1876221-0.6495972-0.2886963  c-0.0288696-0.0144653-0.0721436-0.0288086-0.1010132-0.0432739C62.0015907,15.4180317,60.9478798,14.6096821,60.081852,13.5993061z   M63.0553017,19.2719746c0.5485229,0.2165527,1.1258507,0.4041748,1.7032433,0.5484619  c-0.8948936,1.2125244-1.3856773,2.6847534-1.4001427,4.1859741c0,0.4185791,0.1588135,0.8083496,0.4474487,1.1113892  c0.2886925,0.2886963,0.678463,0.4619141,1.0970421,0.4619141h0.0144043c0.8372192,0,1.5300293-0.6928101,1.5444946-1.5444946  c0-0.8659668,0.2886963-1.703186,0.8227539-2.3959961v1.1980591c0,0.8660278,0.6928101,1.5588379,1.5444946,1.5588379  c0.8660278,0,1.5588989-0.6928101,1.5588989-1.5588379v-1.0970459c0.4763184,0.6640015,0.7505493,1.4723511,0.7505493,2.3094482  c0,0.8516846,0.7072754,1.5444946,1.55896,1.5300293h0.0144043c0.4185791,0,0.8083496-0.1587524,1.0970459-0.4619141  c0.2886353-0.2885742,0.4474487-0.6783447,0.4329834-1.0969238c0-1.47229-0.4763184-2.9157715-1.3423462-4.1138306  c0.8660278-0.2164307,1.7032471-0.5195923,2.5115356-0.9093628c11.7061768,12.4135742,17.046875,22.1711445,15.8777466,28.9840717  c-0.6062622,3.5509033-2.9735107,6.3222656-7.2171631,8.4874268c-0.7938843,0.4185181-1.6744385,0.6350708-2.5693359,0.6206055  H57.3682289c-0.8949585,0.0144653-1.7610474-0.1876221-2.5404663-0.6062012  c-4.3302612-2.1651001-6.7407837-4.9653931-7.3614502-8.5162354C46.2826576,41.1976357,51.5366859,31.5555439,63.0553017,19.2719746  z"/>
    <path fill="#666666" d="M95.2149048,61.2324257c-2.020752-2.5548706-5.5571899-3.0744629-9.0358887-1.2990112l-14.795166,7.4769249  c-0.8226929-1.5733643-2.2228394-2.7425537-3.9116211-3.2766113l-27.4973106-8.6894493  c-2.7425537-0.8948975-5.7304688-0.4329834-8.083252,1.241394L21.397953,64.0037842l-0.77948-1.602169  c-0.1876831-0.3753052-0.505188-0.6639404-0.8948975-0.7938843c-0.3897705-0.1299438-0.8083496-0.1010132-1.1836548,0.0722046  L4.0911899,68.6949463c-0.7649536,0.3753052-1.0825806,1.2991333-0.7072754,2.064209l12.5578613,25.8662109  c0.1732187,0.3753052,0.4907846,0.6495361,0.8804941,0.7938843c0.3897095,0.1299438,0.8082886,0.1010132,1.1835938-0.0722046  l14.4487305-7.0150146c0.3609009-0.1876831,0.6495972-0.505249,0.7794189-0.8950195  c0.0578003-0.1587524,0.0866089-0.3319702,0.0866089-0.505127c0-0.230957-0.0576782-0.4619141-0.1587524-0.6784058  l-0.6783447-1.4146118l3.1032715-1.8908691c0.2165527-0.1443481,0.4763794-0.2021484,0.7217407-0.1443481l28.1902428,5.4850464  c0.4329834,0.0866089,0.8804321,0.1299438,1.3278809,0.1299438c1.4434814,0,2.8579712-0.4763794,3.9983521-1.3712769  L94.03125,70.6580811c1.5878296-1.2125244,2.5693359-3.0457153,2.7136841-5.0376587  c0.0144043-0.1731567,0.0288696-0.3319702,0.0288696-0.505127C96.7738037,63.6862831,96.2108765,62.300602,95.2149048,61.2324257z   M93.6560669,65.418457c-0.0866089,1.0825195-0.6351318,2.0929565-1.5012207,2.7713013L67.9341431,86.5790405  c-0.7938843,0.6495972-1.8476563,0.8949585-2.8580933,0.6640015l-28.1756554-5.4849854  c-1.010437-0.2020874-2.0640869-0.0144653-2.9301758,0.5340576l-2.8579712,1.7320557l-8.3574219-17.1912231l10.8978271-7.6068687  c1.5588379-1.1258545,3.5652466-1.4290161,5.3839722-0.8227539l27.4973106,8.6894493  c1.8909302,0.5918579,2.9446411,2.5838013,2.3527832,4.4746704l-0.0865479,0.3030396  c-0.4619141,1.5444946-1.8764648,2.526062-3.4209595,2.526062c-0.274231,0-0.5340576-0.0288086-0.8082886-0.0866089  l-21.5214806-4.9365234c-0.8372192-0.1876831-1.6744385,0.3319702-1.8621216,1.1691895  c-0.1876221,0.8372192,0.3320923,1.6599731,1.1691895,1.8619995l21.5216064,4.9221191  c0.4762535,0.1154175,0.9815025,0.1587524,1.4722252,0.1587524c1.4290771,0,2.8146973-0.4474487,3.9694214-1.2991333  c1.1547852-0.8515625,2.0064087-2.0351563,2.4393921-3.3920288l0.0866089-0.2886963  c0.2020874-0.6495361,0.3031616-1.3279419,0.3031616-2.0063477l15.4302368-7.7944908  c1.6887817-0.8660889,3.9550171-1.1691895,5.2396851,0.505188c0.0288696,0.043335,0.0721436,0.1010132,0.1298218,0.1443481  C93.4683838,63.9028358,93.7282104,64.6533813,93.6560669,65.418457z"/>
    <path fill="#666666" d="M69.3775635,53.250309c3.3487549,0,6.5675659-1.3424683,8.9348145-3.7095947  c2.3671875-2.3672485,3.6951904-5.5860596,3.6951904-8.9348145c0-3.3488159-1.3280029-6.5532227-3.6951904-8.9348774  c-2.3672485-2.3672485-5.5860596-3.6951294-8.9348145-3.6951294s-6.5676231,1.3278809-8.9348106,3.6951294  c-2.3672485,2.3816547-3.6951904,5.5860615-3.6951904,8.9348774c0,3.3487549,1.3279419,6.5675659,3.6951904,8.9348145  C62.8099403,51.9078407,66.0288086,53.2359047,69.3775635,53.250309z M64.671936,43.4927406  c0.1298828-0.3897705,0.4041138-0.7072754,0.7794189-0.8948975c0.3609009-0.1876831,0.7938843-0.2165527,1.1836548-0.0866089  c0.3897705,0.1298218,0.7072754,0.4041138,0.8948975,0.7794189c0.4186401,1.0536499,1.4867554,1.6743164,2.5981445,1.5300293  c0.5774536-0.1010742,0.9671631-0.6351318,0.9093628-1.2125244c0.0144653-0.9671021-0.1153564-1.0825806-1.6743164-1.472229  c-1.4723511-0.3609009-4.229248-1.053772-4.1859741-4.821106c0-1.6887817,1.053772-3.1899414,2.6414795-3.7528687v-0.7072754  c0-0.4186401,0.1443481-0.8227539,0.4474487-1.1259174c0.2887573-0.3031006,0.6928711-0.4763794,1.1115112-0.4763794  c0.4185791,0,0.8227539,0.1732788,1.1113892,0.4763794c0.2886963,0.3031635,0.4474487,0.7072773,0.4331055,1.1259174v0.5917358  c1.5010986,0.4330444,2.6847534,1.5878296,3.1610718,3.0745239c0.1443481,0.3897705,0.1154175,0.8227539-0.0722046,1.1980591  c-0.1876831,0.3753052-0.505188,0.6639404-0.9093628,0.7938843c-0.4041138,0.1299438-0.8371582,0.1010742-1.197998-0.1010742  c-0.3753052-0.1876221-0.6495972-0.5195923-0.7650757-0.9237671c-0.2598267-0.7938843-1.0681152-1.2702637-1.8908691-1.1113892  c-0.5196533,0.0143433-0.9526367,0.4474487-0.9671021,0.967041c-0.0144653,1.284668,0.3031616,1.4145508,1.8331909,1.789856  c1.4145508,0.3608398,4.0560303,1.0248413,4.0126953,4.5179443c0.0144653,0.9526367-0.2886963,1.8908691-0.8660278,2.6414795  c-0.5773926,0.7650146-1.4146118,1.2990723-2.3383179,1.5300293v0.5340576  c0.0143433,0.4330444-0.1444092,0.8372192-0.4331055,1.1403198c-0.2886353,0.2886963-0.6928101,0.4619141-1.1113892,0.4619141  c-0.4186401,0-0.8227539-0.1732178-1.1115112-0.4619141c-0.3031006-0.3031006-0.4474487-0.7072754-0.4474487-1.1403198v-0.77948  c-1.3279419-0.5628662-2.4249268-1.5877686-3.0600586-2.9012451C64.5709229,44.3010292,64.5419922,43.8823891,64.671936,43.4927406z  "/>
</svg>