<svg xmlns="http://www.w3.org/2000/svg" version="1.1" viewBox="0 0 100 100">
    <path fill="#666666" d="m88.949 73.453h-5.7383v-56.25c0-4.3164-3.5117-7.8281-7.8281-7.8281h-55.625c-0.019531 0-0.035156 0.003906-0.054687 0.003906-0.066406 0-0.13672 0.003906-0.20312 0.007813-1.2305 0.054687-2.3984 0.57031-3.3047 1.4648-0.94531 0.95703-1.4688 2.2188-1.4688 3.5547v12.551c0 1.8789 1.5312 3.4102 3.4102 3.4102h4.2305v21.004c-0.097657 0.007812-0.18359 0.003906-0.28125 0.015625-6.9805 0.75-12.246 6.625-12.246 13.66s5.2656 12.91 12.234 13.656c0.097656 0.011719 0.19531 0.015625 0.29297 0.027344v2.2578c0 5.1797 4.1836 9.4648 9.3594 9.625 0.058594 0.007813 0.11719 0.011719 0.17578 0.011719h47.875c5.7227 0 10.379-4.6523 10.379-10.371v-5.5898c0-0.66797-0.54297-1.2109-1.2109-1.2109zm-70.812-45.5c-0.54688 0-0.99219-0.44531-0.99219-0.99219v-12.551c0-0.68359 0.28125-1.3594 0.75781-1.8438 0.47656-0.46875 1.0898-0.73828 1.7344-0.76172 0.039062 0 0.078125-0.007813 0.11719-0.011719h0.007813 0.003906c-0.003906 0-0.007813 0.003906-0.003906 0.003906 0.65625 0 1.25 0.25 1.707 0.65234 0.54688 0.48047 0.90234 1.1797 0.90234 1.9648v13.539zm-5.875 37.094c0-5.7969 4.3359-10.637 10.074-11.254 0.42969-0.042969 0.84766-0.0625 1.2422-0.0625 6.2461 0 11.324 5.0781 11.324 11.316 0 6.2461-5.082 11.324-11.324 11.324-0.41406 0-0.82422-0.023438-1.2305-0.070313-5.75-0.61719-10.086-5.457-10.086-11.254zm20.047 23.16h-0.25781c-0.042969-0.003906-0.085937-0.007812-0.12891-0.007812-3.9336-0.058594-7.1328-3.293-7.1328-7.2109v-2.2461c0.035157-0.003907 0.066407-0.011719 0.10156-0.015626 0.1875-0.019531 0.37109-0.050781 0.55469-0.074218 0.26172-0.035156 0.51953-0.070313 0.77734-0.11719 0.19141-0.039062 0.375-0.085937 0.5625-0.13281 0.24219-0.058594 0.48438-0.11719 0.72266-0.1875 0.1875-0.054688 0.37109-0.125 0.55859-0.1875 0.22656-0.078125 0.45703-0.16016 0.67969-0.25 0.18359-0.074219 0.36328-0.15625 0.53906-0.23828 0.21484-0.097656 0.42969-0.19922 0.63672-0.30859 0.17578-0.09375 0.34766-0.19141 0.51953-0.28906 0.20312-0.11719 0.40234-0.23438 0.59766-0.36328 0.16797-0.10938 0.33203-0.22266 0.49219-0.33594 0.1875-0.13281 0.37109-0.27344 0.55469-0.41406 0.15625-0.125 0.30859-0.25 0.46094-0.37891 0.17578-0.15234 0.34375-0.30469 0.51172-0.46484 0.14453-0.13672 0.28516-0.27734 0.42188-0.41797 0.16016-0.16797 0.3125-0.33984 0.46484-0.51172 0.12891-0.14844 0.25781-0.30078 0.38281-0.45313 0.14453-0.18359 0.28125-0.36719 0.41797-0.55859 0.11328-0.16016 0.23047-0.32031 0.33984-0.48438 0.12891-0.19531 0.25-0.39844 0.36719-0.60547 0.097656-0.16797 0.19922-0.33594 0.28906-0.50781 0.11328-0.21094 0.21094-0.42969 0.3125-0.64844 0.082031-0.17578 0.16406-0.34766 0.23828-0.52734 0.09375-0.23047 0.17578-0.46484 0.25781-0.69922 0.0625-0.17969 0.12891-0.35156 0.18359-0.53516 0.078125-0.25 0.13672-0.50781 0.19922-0.76562 0.042968-0.17188 0.089844-0.34375 0.125-0.51953 0.058594-0.28906 0.09375-0.58203 0.13281-0.87891 0.019532-0.15234 0.050782-0.29688 0.066406-0.44922 0.042969-0.44922 0.070313-0.90625 0.070313-1.3672 0-0.46094-0.023437-0.91797-0.070313-1.3672-0.015624-0.15234-0.046874-0.30078-0.066406-0.44922-0.039062-0.29297-0.078125-0.58984-0.13281-0.87891-0.035156-0.17578-0.085938-0.34375-0.125-0.51562-0.0625-0.25781-0.12109-0.51562-0.19922-0.76562-0.054687-0.17969-0.12109-0.35547-0.18359-0.53516-0.082031-0.23438-0.16406-0.46875-0.25781-0.69922-0.074219-0.17969-0.15625-0.35156-0.23828-0.52734-0.10156-0.21875-0.20313-0.4375-0.3125-0.64844-0.089844-0.17188-0.19141-0.33984-0.28906-0.50781-0.11719-0.20312-0.23828-0.40625-0.36719-0.60547-0.10938-0.16406-0.22266-0.32422-0.33984-0.48438-0.13672-0.1875-0.27344-0.375-0.41797-0.55859-0.125-0.15625-0.25391-0.30469-0.38281-0.45312-0.15234-0.17578-0.30469-0.34375-0.46484-0.51172-0.13672-0.14453-0.27734-0.28125-0.42188-0.41797-0.16797-0.16016-0.33594-0.3125-0.51172-0.46484-0.15234-0.12891-0.30469-0.25781-0.46094-0.37891-0.17969-0.14453-0.36719-0.28125-0.55469-0.41406-0.16406-0.11719-0.32422-0.23047-0.49219-0.33594-0.19531-0.125-0.39453-0.24609-0.59375-0.36328-0.17187-0.10156-0.34375-0.19922-0.51953-0.28906-0.20703-0.10937-0.42188-0.20703-0.63672-0.30859-0.17969-0.082031-0.35937-0.16406-0.54297-0.24219-0.22266-0.089843-0.44922-0.16797-0.67578-0.25-0.1875-0.0625-0.37109-0.13281-0.55859-0.1875-0.23828-0.070312-0.48047-0.12891-0.71875-0.1875-0.1875-0.046875-0.375-0.09375-0.56641-0.13281-0.25391-0.050781-0.51562-0.082031-0.77344-0.11719-0.1875-0.027343-0.37109-0.058593-0.55859-0.074219-0.035156-0.003906-0.066406-0.011718-0.10156-0.015624v-22.18c0-0.007812 0.003906-0.015625 0.003906-0.023438v-14.75c0-0.22656-0.019531-0.44531-0.050781-0.66406-0.003906-0.03125-0.011719-0.066406-0.015625-0.097656-0.03125-0.19531-0.070313-0.38672-0.12109-0.57422-0.003906-0.019531-0.011719-0.042969-0.015625-0.0625-0.0625-0.21094-0.13281-0.41797-0.22266-0.61328-0.003906-0.007813-0.007813-0.015625-0.011719-0.023438-0.082031-0.17969-0.17188-0.35547-0.27344-0.52344-0.011719-0.019531-0.019532-0.039063-0.027344-0.054688h51.328c2.9805 0 5.4102 2.4258 5.4102 5.4102v56.25h-40.312c-0.66797 0-1.2109 0.54297-1.2109 1.2109v6.0195c0 3.1562-1.875 5.8828-4.5586 6.9961-0.69531 0.28906-1.4414 0.47266-2.2266 0.52344-0.058593 0.003906-0.11328 0.003906-0.17188 0.003906zm55.43-7.9531c0 4.3828-3.5703 7.9531-7.9609 7.9531h-41.414l0.046875-0.046875c0.19141-0.17578 0.375-0.35938 0.55469-0.55078 0.12109-0.13281 0.23828-0.26953 0.35547-0.40625 0.125-0.14844 0.25-0.29297 0.36719-0.44922 0.097656-0.12891 0.18359-0.26562 0.27344-0.39844 0.089843-0.13672 0.18359-0.26953 0.26953-0.41016 0.085937-0.14453 0.16797-0.29297 0.24609-0.44141 0.074219-0.13672 0.14844-0.27734 0.21484-0.41797 0.074219-0.15625 0.14453-0.31641 0.21094-0.47656 0.058594-0.14062 0.11328-0.28516 0.16797-0.42969 0.0625-0.16797 0.11719-0.33203 0.17188-0.50391 0.046874-0.14844 0.085937-0.30078 0.12109-0.44922 0.042969-0.17187 0.089844-0.34766 0.125-0.52344 0.03125-0.15625 0.054688-0.31641 0.078125-0.47656 0.027344-0.17578 0.058594-0.35156 0.074219-0.53125 0.019531-0.1875 0.023437-0.375 0.03125-0.5625 0.007813-0.14844 0.023437-0.29297 0.023437-0.44531v-4.8125h46.047v4.3828zm-64.16-6.1445c-0.66797 0-1.2109-0.54297-1.2109-1.2109v-1.8789h-1.5039c-0.66797 0-1.2109-0.54297-1.2109-1.2109 0-0.66797 0.54297-1.2109 1.2109-1.2109h4.0938c0.070313 0 0.125-0.054687 0.125-0.125v-2.0977c0-0.070312-0.054687-0.125-0.125-0.125h-2.7578c-1.4023 0-2.543-1.1406-2.543-2.543v-2.0977c0-1.4023 1.1406-2.543 2.543-2.543h0.16797v-1.8789c0-0.66797 0.54297-1.2109 1.2109-1.2109s1.2109 0.54297 1.2109 1.2109v1.8789h1.5039c0.66797 0 1.2109 0.54297 1.2109 1.2109 0 0.66797-0.54297 1.2109-1.2109 1.2109h-4.0938c-0.070313 0-0.125 0.054688-0.125 0.125v2.0977c0 0.070312 0.054687 0.125 0.125 0.125h2.7578c1.4023 0 2.543 1.1406 2.543 2.543v2.0977c0 1.4023-1.1406 2.543-2.543 2.543h-0.17188v1.8789c0 0.66797-0.54297 1.2109-1.2109 1.2109zm9.4688-55.84c0-0.66797 0.54297-1.2109 1.2109-1.2109h8.8477c0.66797 0 1.2109 0.54297 1.2109 1.2109s-0.54297 1.2109-1.2109 1.2109h-3.2148v9.6797c0 0.66797-0.54297 1.2109-1.2109 1.2109-0.66797 0-1.2109-0.54297-1.2109-1.2109v-9.6797h-3.2148c-0.66797 0-1.2109-0.54297-1.2109-1.2109zm12.379 12c0.15625 0.066407 0.32031 0.097657 0.48047 0.097657 0.46875 0 0.91406-0.27344 1.1094-0.73047l1.2305-2.8477h4.7695l1.2305 2.8477c0.26562 0.61328 0.97656 0.89453 1.5898 0.62891 0.61328-0.26562 0.89453-0.97656 0.63281-1.5898l-1.5391-3.5625c0-0.003906-0.003907-0.003906-0.003907-0.007812l-3.1602-7.3164c-0.19141-0.44141-0.67188-0.73047-1.1562-0.73047s-0.91797 0.28516-1.1094 0.73047l-3.1602 7.3203v0.003906l-1.5391 3.5664c-0.26562 0.61328 0.015625 1.3242 0.62891 1.5898zm5.2031-9 1.3398 3.1055h-2.6797zm8.1289 7.168 3.5273-4.7188-3.5273-4.7188c-0.39844-0.53516-0.28906-1.293 0.24609-1.6914 0.53516-0.39844 1.293-0.28906 1.6914 0.24609l3.1016 4.1484 3.1016-4.1484c0.39844-0.53516 1.1562-0.64453 1.6914-0.24609 0.53516 0.39844 0.64453 1.1562 0.24609 1.6914l-3.5273 4.7188 3.5273 4.7188c0.39844 0.53516 0.28906 1.293-0.24609 1.6914-0.21875 0.16406-0.47266 0.24219-0.72266 0.24219-0.36719 0-0.73047-0.16797-0.96875-0.48438l-3.1016-4.1484-3.1016 4.1484c-0.23828 0.31641-0.60156 0.48438-0.96875 0.48438-0.25391 0-0.50781-0.078125-0.72266-0.24219-0.53516-0.39844-0.64453-1.1562-0.24609-1.6914zm-27.043 12.945c0-0.66797 0.54297-1.2109 1.2109-1.2109h39.039c0.66797 0 1.2109 0.54297 1.2109 1.2109 0 0.66797-0.54297 1.2109-1.2109 1.2109h-39.039c-0.66797 0-1.2109-0.54297-1.2109-1.2109zm40.246 8.5898h-39.039c-0.66797 0-1.2109-0.54297-1.2109-1.2109s0.54297-1.2109 1.2109-1.2109h39.039c0.66797 0 1.2109 0.54297 1.2109 1.2109s-0.54297 1.2109-1.2109 1.2109zm1.2109 6.168c0 0.66797-0.54297 1.2109-1.2109 1.2109h-28.949c-0.66797 0-1.2109-0.54297-1.2109-1.2109s0.54297-1.2109 1.2109-1.2109h28.949c0.66797 0 1.2109 0.54297 1.2109 1.2109zm0 7.3789c0 0.66797-0.54297 1.2109-1.2109 1.2109h-28.949c-0.66797 0-1.2109-0.54297-1.2109-1.2109s0.54297-1.2109 1.2109-1.2109h28.949c0.66797 0 1.2109 0.54297 1.2109 1.2109z"/>
</svg>